<svg width="24" height="24" viewBox="0 0 24 24" fill="none" xmlns="http://www.w3.org/2000/svg">
  <path d="M21.5 18L14.8 12.5M9.2 12.5L2.5 18M2 7L10.1 13C10.6333 13.4 11.3 13.6 12 13.6C12.7 13.6 13.3667 13.4 13.9 13L22 7M4.8 20H19.2C20.8802 20 21.7202 20 22.362 19.673C22.9265 19.3854 23.3854 18.9265 23.673 18.362C24 17.7202 24 16.8802 24 15.2V8.8C24 7.11984 24 6.27976 23.673 5.63803C23.3854 5.07354 22.9265 4.6146 22.362 4.32698C21.7202 4 20.8802 4 19.2 4H4.8C3.11984 4 2.27976 4 1.63803 4.32698C1.07354 4.6146 0.614601 5.07354 0.32698 5.63803C0 6.27976 0 7.11984 0 8.8V15.2C0 16.8802 0 17.7202 0.32698 18.362C0.614601 18.9265 1.07354 19.3854 1.63803 19.673C2.27976 20 3.11984 20 4.8 20Z" stroke="#3B4BD8" stroke-width="1.5" stroke-linecap="round" stroke-linejoin="round"/>
</svg> 