<svg width="150" height="40" viewBox="0 0 150 40" fill="none" xmlns="http://www.w3.org/2000/svg">
  <path d="M15.2 8H10.4V18.4H5.6V8H0.8V32H5.6V22.4H10.4V32H15.2V8Z" fill="#3B4BD8"/>
  <path d="M28.0781 13.6C25.0781 13.6 22.8781 14.4 21.2781 16.4C19.6781 18.4 18.8781 20.8 18.8781 24C18.8781 27.2 19.6781 29.6 21.2781 31.6C22.8781 33.6 25.0781 34.4 28.0781 34.4C31.0781 34.4 33.2781 33.6 34.8781 31.6C36.4781 29.6 37.2781 27.2 37.2781 24C37.2781 20.8 36.4781 18.4 34.8781 16.4C33.2781 14.4 31.0781 13.6 28.0781 13.6ZM28.0781 30.4C26.8781 30.4 25.8781 29.9 25.2781 28.8C24.6781 27.7 24.4781 26.1 24.4781 24C24.4781 21.9 24.6781 20.3 25.2781 19.2C25.8781 18.1 26.8781 17.6 28.0781 17.6C29.2781 17.6 30.2781 18.1 30.8781 19.2C31.4781 20.3 31.6781 21.9 31.6781 24C31.6781 26.1 31.4781 27.7 30.8781 28.8C30.2781 29.9 29.2781 30.4 28.0781 30.4Z" fill="#3B4BD8"/>
  <path d="M51.7562 13.6C49.9562 13.6 48.5562 14.1 47.5562 15.2C46.5562 16.3 46.0562 17.8 46.0562 19.6V32H41.2562V14H45.6562V16.8C46.1562 15.8 46.8562 15 47.7562 14.4C48.6562 13.8 49.6562 13.6 50.7562 13.6H51.7562V13.6Z" fill="#3B4BD8"/>
  <path d="M54.0344 14H58.8344V32H54.0344V14ZM54.0344 8H58.8344V12H54.0344V8Z" fill="#3B4BD8"/>
  <path d="M73.6125 13.6C71.0125 13.6 69.0125 14.4 67.6125 16C66.2125 17.6 65.6125 20 65.6125 23.2C65.6125 26.4 66.3125 28.8 67.8125 30.4C69.3125 32 71.4125 32.8 74.2125 32.8C76.0125 32.8 77.7125 32.5 79.2125 32V28C77.7125 28.4 76.4125 28.6 75.2125 28.6C73.8125 28.6 72.7125 28.2 72.0125 27.4C71.3125 26.6 70.9125 25.4 70.8125 23.8H79.6125V21.2C79.6125 18.4 79.0125 16.3 77.8125 14.8C76.6125 14 75.2125 13.6 73.6125 13.6ZM70.8125 20.2C70.9125 18.8 71.2125 17.8 71.8125 17C72.4125 16.2 73.2125 15.8 74.2125 15.8C75.2125 15.8 76.0125 16.2 76.6125 17C77.2125 17.8 77.4125 18.8 77.4125 20.2H70.8125Z" fill="#3B4BD8"/>
  <path d="M92.3906 8H87.5906V32H92.3906V8Z" fill="#3B4BD8"/>
  <path d="M106.969 13.6C104.369 13.6 102.369 14.4 100.969 16C99.5688 17.6 98.9688 20 98.9688 23.2C98.9688 26.4 99.6688 28.8 101.169 30.4C102.669 32 104.769 32.8 107.569 32.8C109.369 32.8 111.069 32.5 112.569 32V28C111.069 28.4 109.769 28.6 108.569 28.6C107.169 28.6 106.069 28.2 105.369 27.4C104.669 26.6 104.269 25.4 104.169 23.8H112.969V21.2C112.969 18.4 112.369 16.3 111.169 14.8C109.969 14 108.569 13.6 106.969 13.6ZM104.169 20.2C104.269 18.8 104.569 17.8 105.169 17C105.769 16.2 106.569 15.8 107.569 15.8C108.569 15.8 109.369 16.2 109.969 17C110.569 17.8 110.769 18.8 110.769 20.2H104.169Z" fill="#3B4BD8"/>
  <path d="M125.747 13.6C123.947 13.6 122.547 14.1 121.547 15.2C120.547 16.3 120.047 17.8 120.047 19.6V32H115.247V14H119.647V16.8C120.147 15.8 120.847 15 121.747 14.4C122.647 13.8 123.647 13.6 124.747 13.6H125.747V13.6Z" fill="#3B4BD8"/>
  <path d="M138.825 13.6C136.825 13.6 135.225 14.4 134.025 16C132.825 17.6 132.225 19.8 132.225 22.8C132.225 25.8 132.825 28 134.025 29.6C135.225 31.2 136.825 32 138.825 32C140.025 32 141.025 31.7 141.825 31.2C142.625 30.7 143.225 30 143.625 29.2V32H148.025V8H143.225V16.8C142.825 16 142.225 15.3 141.425 14.8C140.625 14 139.825 13.6 138.825 13.6ZM140.425 28C139.425 28 138.625 27.6 138.025 26.8C137.425 26 137.125 24.7 137.125 22.8C137.125 20.9 137.425 19.6 138.025 18.8C138.625 18 139.425 17.6 140.425 17.6C141.425 17.6 142.225 18 142.825 18.8C143.425 19.6 143.725 20.9 143.725 22.8C143.725 24.7 143.425 26 142.825 26.8C142.225 27.6 141.425 28 140.425 28Z" fill="#3B4BD8"/>
  <path d="M94.8 8H99.6V12H94.8V8Z" fill="#3B4BD8"/>
</svg> 