<svg width="24" height="24" viewBox="0 0 24 24" fill="none" xmlns="http://www.w3.org/2000/svg">
  <path d="M19.23 15.26L16.69 14.97C16.314 14.9319 15.9369 14.9879 15.5938 15.1329C15.2507 15.278 14.9518 15.5077 14.73 15.8L13.67 17.33C11.5 16.24 9.73 14.5 8.64 12.33L10.17 11.27C10.4614 11.0466 10.6901 10.7473 10.8348 10.4043C10.9796 10.0613 11.0359 9.68473 11 9.31L10.7 6.78C10.6402 6.29107 10.4085 5.84801 10.0422 5.5192C9.67596 5.19039 9.19728 4.99919 8.7 4.99H7C6.17 4.99 5.5 5.66 5.58 6.48C6.19 13.94 12.08 19.81 19.53 20.42C20.35 20.5 21.02 19.83 21.02 19V17.3C21.02 16.8027 20.8288 16.324 20.5 15.9578C20.1712 15.5915 19.7281 15.3598 19.24 15.3L19.23 15.26Z" fill="#3B4BD8"/>
</svg> 