<svg width="24" height="24" viewBox="0 0 24 24" fill="none" xmlns="http://www.w3.org/2000/svg">
  <path d="M22.2647 2.2647C21.9217 1.95797 21.5158 1.72466 21.0735 1.58192C20.6312 1.43918 20.1626 1.39105 19.6995 1.44095C19.2364 1.49085 18.7893 1.63762 18.3881 1.87074C17.9869 2.10386 17.6407 2.41774 17.3735 2.7947L9.9435 13.6047L6.1635 10.9047C5.77339 10.6213 5.31791 10.4423 4.84048 10.3845C4.36305 10.3267 3.87901 10.3918 3.43348 10.5739C2.98795 10.756 2.59643 11.0495 2.29721 11.4254C1.99799 11.8013 1.80099 12.2468 1.7235 12.7147C1.6435 13.1947 1.6835 13.6847 1.8435 14.1447C2.0035 14.6047 2.2835 15.0147 2.6535 15.3347L7.9335 19.6147C8.3135 19.9347 8.7835 20.1347 9.2835 20.1947C9.7835 20.2547 10.2835 20.1747 10.7335 19.9547C11.1835 19.7347 11.5635 19.3947 11.8335 18.9647L22.7335 3.1647C23.0402 2.72246 23.2235 2.20693 23.2635 1.67095C23.3034 1.13497 23.1985 0.598455 22.9588 0.116949C22.7191 -0.364557 22.3535 -0.775767 21.9035 -1.07095C21.4535 -1.36613 20.9353 -1.53473 20.3995 -1.55947C19.8637 -1.58421 19.3322 -1.46417 18.8547 -1.20947" stroke="white" stroke-width="1.5" stroke-linecap="round" stroke-linejoin="round"/>
  <path d="M9.9435 13.6047L8.3835 19.3347" stroke="white" stroke-width="1.5" stroke-linecap="round" stroke-linejoin="round"/>
</svg> 