<svg width="24" height="24" viewBox="0 0 24 24" fill="none" xmlns="http://www.w3.org/2000/svg">
  <path d="M4 20L5.3 16.1C4.45209 14.6209 4.06209 12.9303 4.17736 11.2401C4.29264 9.54991 4.90864 7.93568 5.93942 6.6009C6.9702 5.26612 8.36427 4.26586 9.95077 3.72819C11.5373 3.19052 13.2443 3.13987 14.8605 3.58379C16.4767 4.02772 17.9221 4.94684 19.0115 6.22178C20.1009 7.49672 20.7826 9.07098 20.9747 10.7433C21.1669 12.4156 20.8608 14.1048 20.0928 15.6079C19.3248 17.111 18.1293 18.3626 16.6551 19.2189C15.1809 20.0752 13.4909 20.5007 11.7747 20.4428C10.0585 20.3849 8.40349 19.8461 7 18.9" stroke="#25D366" stroke-width="1.5" stroke-linecap="round" stroke-linejoin="round"/>
  <path d="M14.2 16.2C14.2 16.2 13.1 15.5 12.6 15.2C12.1 14.9 11.9 14.8 11.6 15.2C11.3 15.6 10.8 16.2 10.6 16.4C10.4 16.6 10.2 16.7 9.8 16.4C9.4 16.1 8.4 15.7 7.4 14.7C6.4 13.7 6 12.7 5.8 12.3C5.6 11.9 5.8 11.7 6 11.5C6.2 11.3 6.4 11 6.6 10.8C6.8 10.6 6.9 10.4 7.1 10.2C7.3 10 7.4 9.8 7.6 10C7.8 10.2 8.4 11.2 8.6 11.6C8.8 12 8.8 12.2 8.6 12.4C8.4 12.6 8.2 12.8 8 13C7.8 13.2 7.6 13.4 7.8 13.8C8 14.2 8.4 14.9 9.1 15.6C9.8 16.3 10.5 16.7 10.9 16.9C11.3 17.1 11.5 17 11.7 16.8C11.9 16.6 12.5 15.9 12.7 15.5C12.9 15.1 13.1 15.2 13.4 15.3C13.7 15.4 14.7 15.9 15.1 16.1C15.5 16.3 15.7 16.4 15.8 16.5C15.9 16.6 15.9 17 15.7 17.4C15.5 17.8 14.6 18.5 14.1 18.6C13.6 18.7 13.1 18.7 12.5 18.5C11.9 18.3 10.3 17.7 8.8 16.3C7.3 14.9 6.3 13.1 6.1 12.5C5.9 11.9 5.9 11.4 6.3 11C6.7 10.6 7.2 10 7.7 9.8C8.2 9.6 8.7 9.7 9 9.9C9.3 10.1 10.1 10.9 10.1 10.9" stroke="#25D366" stroke-width="1.5" stroke-linecap="round" stroke-linejoin="round"/>
</svg> 