<svg width="36" height="36" viewBox="0 0 36 36" fill="none" xmlns="http://www.w3.org/2000/svg">
<rect x="2" y="2" width="32" height="32" rx="16" fill="#416DC6"/>
<rect x="2" y="2" width="32" height="32" rx="16" stroke="#3062B8" stroke-width="4"/>
<g clip-path="url(#clip0_10251_48165)">
<path d="M23.3333 17.9999V24.6666H12.6666V17.9999M17.9999 24.6666V14.6666M17.9999 14.6666H14.9999C14.5579 14.6666 14.134 14.491 13.8214 14.1784C13.5088 13.8659 13.3333 13.4419 13.3333 12.9999C13.3333 12.5579 13.5088 12.134 13.8214 11.8214C14.134 11.5088 14.5579 11.3333 14.9999 11.3333C17.3333 11.3333 17.9999 14.6666 17.9999 14.6666ZM17.9999 14.6666H20.9999C21.4419 14.6666 21.8659 14.491 22.1784 14.1784C22.491 13.8659 22.6666 13.4419 22.6666 12.9999C22.6666 12.5579 22.491 12.134 22.1784 11.8214C21.8659 11.5088 21.4419 11.3333 20.9999 11.3333C18.6666 11.3333 17.9999 14.6666 17.9999 14.6666ZM11.3333 14.6666H24.6666V17.9999H11.3333V14.6666Z" stroke="white" stroke-width="1.33333" stroke-linecap="round" stroke-linejoin="round"/>
</g>
<defs>
<clipPath id="clip0_10251_48165">
<rect width="16" height="16" fill="white" transform="translate(10 10)"/>
</clipPath>
</defs>
</svg>
