<svg width="36" height="36" viewBox="0 0 36 36" fill="none" xmlns="http://www.w3.org/2000/svg">
<rect x="2" y="2" width="32" height="32" rx="16" fill="#416DC6"/>
<rect x="2" y="2" width="32" height="32" rx="16" stroke="#3062B8" stroke-width="4"/>
<path d="M22.6667 13.3334L13.3334 22.6667M16.0001 14.3334C16.0001 15.2539 15.2539 16.0001 14.3334 16.0001C13.4129 16.0001 12.6667 15.2539 12.6667 14.3334C12.6667 13.4129 13.4129 12.6667 14.3334 12.6667C15.2539 12.6667 16.0001 13.4129 16.0001 14.3334ZM23.3334 21.6667C23.3334 22.5872 22.5872 23.3334 21.6667 23.3334C20.7463 23.3334 20.0001 22.5872 20.0001 21.6667C20.0001 20.7463 20.7463 20.0001 21.6667 20.0001C22.5872 20.0001 23.3334 20.7463 23.3334 21.6667Z" stroke="white" stroke-width="1.33333" stroke-linecap="round" stroke-linejoin="round"/>
</svg>
